<svg data-name="Logo New" xmlns="http://www.w3.org/2000/svg" width="208.975" height="50.811" viewBox="0 0 208.975 50.811">
    <g data-name="Group 128">
        <path data-name="Path 692" d="M9.233 35.415a12.942 12.942 0 0 1 .537-5.522 14.828 14.828 0 0 1 7.149-8.493 29.517 29.517 0 0 1 4.946-2.256 5.846 5.846 0 0 0 2.769-1.516c.592-.858 0-1.631-.5-2.106-1.1-.979-2.932-1.128-4.161-2.047a1.3 1.3 0 0 1-.7-1.456c.322-1.394 1.857-2.106 2.9-2.641a22.488 22.488 0 0 1 10.298-2.614 22 22 0 0 0-6.149-.915 21 21 0 0 0-16.13 34.431c-.162-.651-.422-1.841-.582-2.436-.128-.83-.249-1.6-.378-2.429" style="fill:#e60000" transform="translate(-5.339 2.989)"/>
        <path data-name="Path 693" d="M281.8 116.583a20.916 20.916 0 0 0-7.981-16.419c-1.506-.711-3.715-.594-5.889-.563-.785.12-1.584.268-2.374.385a12.319 12.319 0 0 0-3.088 1.338c-.412.265-1.4.653-1.1 1.484.641 1.72 4.62 2.047 6.093 3.147.6.443 1.543 1.336.828 2.345-.647.888-2.024 1.185-3.087 1.6-2.6 1.066-5.75 1.426-7.973 2.849a14.433 14.433 0 0 0-6.319 7.6 14.053 14.053 0 0 0-.551 2.788 10.62 10.62 0 0 0-.061 3.028 25.908 25.908 0 0 0 .412 3.209 10.718 10.718 0 0 0 7.6 7.776 39.7 39.7 0 0 0 2.748.417 20.988 20.988 0 0 0 20.742-20.984" transform="translate(-239.823 -86.761)" style="fill:#e60000"/>
    </g>
    <text data-name="ELSEWEDY ELECTROMETER" transform="translate(47.432 47.811)" style="font-family:Arial-Black,Arial;font-weight:800;fill:#827970;font-size:10.3px"><tspan x="0" y="0">EL</tspan><tspan y="0" style="fill:#e60000">SEWEDY</tspan><tspan y="0" style="fill:#e22228"> </tspan><tspan y="0">ELECTRO</tspan><tspan y="0" style="fill:#e60000">METER</tspan></text>
    <text data-name="SMART-G" transform="translate(46.974 35)" style="font-size:32px;font-family:Arial-Black,Arial;font-weight:800;fill:#e60000"><tspan x="0" y="0">SMART</tspan><tspan y="0" style="fill:#81786f">-G</tspan></text>
</svg>
