<svg xmlns="http://www.w3.org/2000/svg" width="17.811" height="28.603" viewBox="0 0 17.811 28.603">
    <g data-name="New task icon">
        <path data-name="Path 55" d="M343.88 305.543c.148-1.5.148-1.5 1.624-1.6v-.952a2.2 2.2 0 0 1 4.4 0v.9c1.489.267 1.489.267 1.623 1.656.714 0 1.439.013 2.164 0a2.677 2.677 0 0 1 2.92 2.864c-.054 6.082-.021 12.165-.023 18.247a2.445 2.445 0 0 1-2.776 2.775q-6.106.009-12.212 0a2.446 2.446 0 0 1-2.777-2.774c0-6.083.032-12.165-.023-18.247a2.678 2.678 0 0 1 2.918-2.866c.704.01 1.411-.003 2.162-.003zm7.622 1.275c-.013.2-.027.337-.03.474-.025 1.079-.033 1.087-1.148 1.087-1.656 0-3.311-.006-4.967 0-1.421.007-1.437.037-1.439-1.38 0-.041-.036-.081-.057-.122-.041-.019-.082-.055-.124-.056-.709-.01-1.418-.021-2.127-.019-1.155 0-1.64.479-1.641 1.619v18.165c0 1.183.5 1.68 1.669 1.68h12.063c1.265 0 1.735-.475 1.735-1.758v-13.979c0-1.419.007-2.838 0-4.257a1.308 1.308 0 0 0-1.08-1.441c-.938-.057-1.879-.013-2.856-.013zm-1.202-1.588h-5.18v1.933h5.18zm-1.616-1.277c-.011-.64.238-1.342-.409-1.742a1.288 1.288 0 0 0-1.138 0c-.629.4-.419 1.1-.4 1.741z" transform="translate(-338.797 -300.829)" style="fill-rule:evenodd"/>
        <path data-name="Path 58" d="M406.791 377.071c.637-.66 1.26-1.3 1.876-1.95.305-.322.7-.565 1-.156a1.035 1.035 0 0 1-.136.967c-.7.8-1.48 1.517-2.229 2.268a.694.694 0 0 1-1.146-.018 14.414 14.414 0 0 1-1.081-1.116c-.138-.185-.073-.522-.1-.79.293-.028.644-.169.867-.056a4.883 4.883 0 0 1 .949.851z" transform="translate(-395.576 -364.25)" style="fill-rule:evenodd"/>
        <path data-name="Path 59" d="M406.978 413.042c.648-.683 1.282-1.344 1.907-2.013.292-.313.685-.5.947-.133a1.039 1.039 0 0 1-.118.975c-.7.8-1.479 1.52-2.231 2.268a.7.7 0 0 1-1.153 0 12 12 0 0 1-1.078-1.119c-.139-.2-.048-.556-.061-.841.295 0 .639-.1.872.026a4.914 4.914 0 0 1 .915.837z" transform="translate(-395.745 -395.086)" style="fill-rule:evenodd"/>
        <path data-name="Path 60" d="M405.74 449.156c.77-.788 1.4-1.422 2.021-2.073.293-.308.649-.5.971-.18.338.333.2.729-.133 1.055-.74.728-1.473 1.465-2.2 2.2a.726.726 0 0 1-1.207-.015c-.318-.348-.66-.676-1-1.005-.284-.276-.455-.573-.114-.905a.611.611 0 0 1 .979.07c.218.25.414.518.683.853z" transform="translate(-394.64 -426.014)" style="fill-rule:evenodd"/>
        <path data-name="Path 61" d="M365.881 393.77a7.743 7.743 0 0 1-1.483-.027c-.238-.047-.418-.387-.625-.6.2-.185.385-.52.591-.53a30.74 30.74 0 0 1 3.185.008c.2.011.536.385.516.557a.831.831 0 0 1-.558.561 10.69 10.69 0 0 1-1.626.031z" transform="translate(-360.225 -379.546)" style="fill-rule:evenodd"/>
        <path data-name="Path 62" d="M365.982 428.642a10.143 10.143 0 0 1 1.552.025c.218.034.565.364.546.523-.026.222-.331.573-.533.585a27.363 27.363 0 0 1-3.179 0c-.2-.013-.384-.414-.576-.636.211-.166.407-.443.637-.476a11.058 11.058 0 0 1 1.553-.023z" transform="translate(-360.242 -410.469)" style="fill-rule:evenodd"/>
        <path data-name="Path 63" d="M366.174 464.659a12.765 12.765 0 0 1 1.623.023c.2.026.549.35.523.476-.049.241-.307.614-.5.624a29.947 29.947 0 0 1-3.25 0c-.193-.01-.494-.377-.508-.6-.011-.166.336-.477.555-.511a10.4 10.4 0 0 1 1.552-.025z" transform="translate(-360.477 -441.368)" style="fill-rule:evenodd"/>
    </g>
</svg>
