<svg data-name="refresh icon" xmlns="http://www.w3.org/2000/svg" width="28" height="28" viewBox="0 0 28 28">
    <circle data-name="Ellipse 11" cx="14" cy="14" r="14" style="fill:#0090ff"/>
    <path data-name="Path 30" d="m27.134-129.388 2.077 2.074h-5.1c-.12 0-.121 0-.121-.119v-5.105l.081.076q.855.855 1.709 1.712a.107.107 0 0 0 .161.021 8.846 8.846 0 0 1 3.138-1.209 8.753 8.753 0 0 1 2.065-.124 8.976 8.976 0 0 1 8.129 6.52 8.772 8.772 0 0 1 .311 1.82 8.879 8.879 0 0 1-.687 4.091c-.01.024-.022.047-.037.078l-.681-.4c-.257-.149-.512-.3-.771-.447-.067-.038-.073-.073-.046-.139a6.816 6.816 0 0 0 .453-1.887 7.025 7.025 0 0 0-.863-4.165 7.126 7.126 0 0 0-4.114-3.389 6.876 6.876 0 0 0-1.9-.335 7.1 7.1 0 0 0-3.72.875c-.027.017-.046.03-.084.052z" transform="translate(-16.597 136.615)" style="fill:#fff;fill-rule:evenodd"/>
    <path data-name="Path 31" d="m-105.632 205.568 1.523.918a7.1 7.1 0 0 0 .152 5.439 7.045 7.045 0 0 0 2.728 3.171 7.114 7.114 0 0 0 7.353.2l-2.045-2.045.011-.025c.03 0 .06-.005.09-.005h5c.089 0 .113.023.113.113V218.441l-.077-.072q-.855-.855-1.709-1.712a.112.112 0 0 0-.169-.019 8.867 8.867 0 0 1-3.243 1.226 8.785 8.785 0 0 1-2.2.088 8.981 8.981 0 0 1-7.883-6.5 8.915 8.915 0 0 1-.321-2.905 8.77 8.77 0 0 1 .65-2.9c0-.028.011-.047.027-.079z" transform="translate(111.418 -195.517)" style="fill:#fff;fill-rule:evenodd"/>
</svg>
